<svg width="1600" height="500" viewBox="0 0 1600 500" xmlns="http://www.w3.org/2000/svg">
  <defs>
    <linearGradient id="bgc" x1="0" y1="0" x2="1" y2="1">
      <stop offset="0%" stop-color="#00B09B"/>
      <stop offset="100%" stop-color="#96C93D"/>
    </linearGradient>
    <linearGradient id="w" x1="0" y1="0" x2="1" y2="0">
      <stop offset="0%" stop-color="#fff" stop-opacity="0.18"/>
      <stop offset="100%" stop-color="#fff" stop-opacity="0"/>
    </linearGradient>
  </defs>
  <rect width="1600" height="500" rx="24" fill="url(#bgc)"/>
  <circle cx="1450" cy="420" r="160" fill="url(#w)"/>
  <circle cx="150" cy="80" r="120" fill="url(#w)"/>
  <g transform="translate(120,120)" fill="#fff">
    <text x="0" y="0" font-family="'Segoe UI', Arial" font-size="22" opacity="0.9">Campus Buzzer</text>
    <text x="0" y="56" font-family="'Segoe UI', Arial" font-weight="700" font-size="64">Support Student Makers</text>
    <text x="0" y="100" font-family="'Segoe UI', Arial" font-size="22" opacity="0.9">Shop Local • Celebrate Creativity • Build Community</text>

    <g transform="translate(0,150)">
      <g transform="translate(0,0)">
        <circle cx="28" cy="28" r="28" fill="rgba(255,255,255,0.25)"/>
        <path d="M14 28h28v4H14zM14 20h28v4H14zM14 36h20v4H14z" fill="#fff"/>
        <text x="72" y="34" font-size="18">Campus Deals</text>
      </g>
      <g transform="translate(260,0)">
        <circle cx="28" cy="28" r="28" fill="rgba(255,255,255,0.25)"/>
        <path d="M14 34l10-18 10 18H14z" fill="#fff"/>
        <text x="72" y="34" font-size="18">Eco Friendly</text>
      </g>
      <g transform="translate(520,0)">
        <circle cx="28" cy="28" r="28" fill="rgba(255,255,255,0.25)"/>
        <path d="M16 18h24l-12 20z" fill="#fff"/>
        <text x="72" y="34" font-size="18">Unique Styles</text>
      </g>
    </g>
  </g>
</svg>


