<svg width="1600" height="500" viewBox="0 0 1600 500" xmlns="http://www.w3.org/2000/svg">
  <defs>
    <linearGradient id="bg" x1="0" y1="0" x2="1" y2="1">
      <stop offset="0%" stop-color="#8E2DE2"/>
      <stop offset="100%" stop-color="#4A00E0"/>
    </linearGradient>
    <radialGradient id="glow" cx="80%" cy="20%" r="40%">
      <stop offset="0%" stop-color="#FFFFFF" stop-opacity="0.25"/>
      <stop offset="100%" stop-color="#FFFFFF" stop-opacity="0"/>
    </radialGradient>
  </defs>
  <rect width="1600" height="500" rx="24" fill="url(#bg)"/>
  <rect width="1600" height="500" rx="24" fill="url(#glow)"/>

  <!-- Headings -->
  <g transform="translate(120,120)" fill="#FFFFFF">
    <text x="0" y="0" font-family="Arial, 'Segoe UI', sans-serif" font-size="22" opacity="0.9">Campus Bazar</text>
    <text x="0" y="56" font-family="Arial, 'Segoe UI', sans-serif" font-weight="700" font-size="64">Creative Arts &amp; Crafts</text>
    <text x="0" y="100" font-family="Arial, 'Segoe UI', sans-serif" font-size="22" opacity="0.9">Workshops • Exhibitions • Student Entrepreneurship</text>

    <!-- Perk icons/text -->
    <g transform="translate(0,150)">
      <g>
        <circle cx="28" cy="28" r="28" fill="rgba(255,255,255,0.22)"/>
        <path d="M16 40l8-24 8 24h-16z" fill="#FFFFFF"/>
        <text x="72" y="35" font-size="18" font-family="Arial, 'Segoe UI', sans-serif">DIY Workshops</text>
      </g>
      <g transform="translate(260,0)">
        <circle cx="28" cy="28" r="28" fill="rgba(255,255,255,0.22)"/>
        <path d="M14 18h28v4H14zM14 26h28v4H14zM14 34h28v4H14z" fill="#FFFFFF"/>
        <text x="72" y="35" font-size="18" font-family="Arial, 'Segoe UI', sans-serif">Student Stalls</text>
      </g>
      <g transform="translate(520,0)">
        <circle cx="28" cy="28" r="28" fill="rgba(255,255,255,0.22)"/>
        <path d="M16 16h24v24H16zM22 22h12v12H22z" fill="#FFFFFF"/>
        <text x="72" y="35" font-size="18" font-family="Arial, 'Segoe UI', sans-serif">Live Demos</text>
      </g>
    </g>
  </g>
</svg>


